<mxfile host="app.diagrams.net" modified="2024-07-04T23:31:15.836Z" agent="Mozilla/5.0 (Windows NT 10.0; Win64; x64) AppleWebKit/537.36 (KHTML, like Gecko) Chrome/126.0.0.0 Safari/537.36" version="24.6.4" etag="2lFvkKEXmJ0q8XZgb6Go" type="github">
  <diagram name="PÃ¡gina-1" id="oNJFWC6Qdmsy3KYRB6TQ">
    <mxGraphModel>
      <root>
        <mxCell id="0" />
        <mxCell id="1" parent="0" />
      </root>
    </mxGraphModel>
  </diagram>
</mxfile>
